<?xml version="1.0" encoding="UTF-8"?>
<svg width="1017px" height="182px" viewBox="0 0 1017 182" version="1.1" xmlns="http://www.w3.org/2000/svg" xmlns:xlink="http://www.w3.org/1999/xlink">
    <!-- Generator: Sketch 51.3 (57544) - http://www.bohemiancoding.com/sketch -->
    <title>Group 38</title>
    <desc>Created with Sketch.</desc>
    <defs></defs>
    <g id="Page-1" stroke="none" stroke-width="1" fill="none" fill-rule="evenodd">
        <g id="Group-38" transform="translate(-1.000000, 0.000000)">
            <text id="user-story-vývoj-CR" font-family="Prompt-Regular, Prompt" font-size="30" font-weight="normal" letter-spacing="0.06597223">
                <tspan x="0" y="175" fill="#000000">user story 	    </tspan>
                <tspan x="212.663889" y="175" fill="#F90303">vývoj</tspan>
                <tspan x="287.27375" y="175" fill="#000000">          </tspan>
                <tspan x="398.933472" y="175" fill="#FA7504">CR</tspan>
                <tspan x="439.055417" y="175" fill="#000000">            </tspan>
                <tspan x="573.047084" y="175" fill="#09930B">QA</tspan>
                <tspan x="618.119028" y="175" fill="#000000">          </tspan>
                <tspan x="729.77875" y="175" fill="#877937">CI/CD</tspan>
                <tspan x="815.098611" y="175" fill="#000000">        </tspan>
                <tspan x="904.426389" y="175" fill="#1A03F9">provoz</tspan>
            </text>
            <g id="Group-17" transform="translate(6.000000, 2.000000)" stroke="#000000">
                <rect id="Rectangle-16" stroke-width="5" fill="#FFFFFF" x="2.5" y="2.5" width="127" height="125" rx="8"></rect>
                <rect id="Rectangle-20" stroke-width="4" x="26" y="29" width="80" height="77" rx="8"></rect>
                <path d="M37.5,49.5 L63.5,49.5" id="Line-8" stroke-width="5" stroke-linecap="square"></path>
                <path d="M37.5,66.25 L93.5,66.25" id="Line-8-Copy" stroke-width="5" stroke-linecap="square"></path>
                <path d="M37.5,84.25 L93.5,84.25" id="Line-8-Copy-2" stroke-width="5" stroke-linecap="square"></path>
            </g>
            <g id="Group-17-Copy-5" transform="translate(179.000000, 1.000000)">
                <rect id="Rectangle-16" stroke="#F90303" stroke-width="5" fill="#FFFFFF" x="2.5" y="2.5" width="127" height="125" rx="8"></rect>
                <text id="#&amp;&lt;&gt;" font-family="Prompt-Regular, Prompt" font-size="33" font-weight="normal" letter-spacing="0.05582266" fill="#F90303">
                    <tspan x="19.9698381" y="78.2445781">#&amp;&lt;&gt;</tspan>
                </text>
            </g>
            <path id="Line-7" d="M170,66.5 L151,57 L151,76 L170,66.5 Z M145.5,68 L152.5,68 L154,68 L154,65 L152.5,65 L145.5,65 L144,65 L144,68 L145.5,68 Z" fill="#888888" fill-rule="nonzero"></path>
            <path id="Line-7-Copy" d="M345.736816,68.5 L326.736816,59 L326.736816,78 L345.736816,68.5 Z M321.494629,70 L328.236816,70 L329.736816,70 L329.736816,67 L328.236816,67 L321.494629,67 L319.994629,67 L319.994629,70 L321.494629,70 Z" fill="#888888" fill-rule="nonzero"></path>
            <path id="Line-7-Copy-2" d="M519.736816,68.5 L500.736816,59 L500.736816,78 L519.736816,68.5 Z M495.494629,70 L502.236816,70 L503.736816,70 L503.736816,67 L502.236816,67 L495.494629,67 L493.994629,67 L493.994629,70 L495.494629,70 Z" fill="#888888" fill-rule="nonzero"></path>
            <path id="Line-7-Copy-3" d="M697.736816,68.5 L678.736816,59 L678.736816,78 L697.736816,68.5 Z M673.494629,70 L680.236816,70 L681.736816,70 L681.736816,67 L680.236816,67 L673.494629,67 L671.994629,67 L671.994629,70 L673.494629,70 Z" fill="#888888" fill-rule="nonzero"></path>
            <path id="Line-7-Copy-4" d="M872.736816,68.5 L853.736816,59 L853.736816,78 L872.736816,68.5 Z M848.494629,70 L855.236816,70 L856.736816,70 L856.736816,67 L855.236816,67 L848.494629,67 L846.994629,67 L846.994629,70 L848.494629,70 Z" fill="#888888" fill-rule="nonzero"></path>
            <g id="Group-17-Copy" transform="translate(707.000000, 2.000000)">
                <rect id="Rectangle-16" stroke="#877937" stroke-width="5" fill="#FFFFFF" x="2.5" y="2.5" width="127" height="125" rx="8"></rect>
                <rect id="Rectangle-17" fill="#877937" x="13.8947368" y="77.4045802" width="41.6842105" height="15.8778626" rx="7.9389313"></rect>
                <rect id="Rectangle-17-Copy" fill="#877937" x="34.7368421" y="59.5419847" width="41.6842105" height="15.8778626" rx="7.9389313"></rect>
                <rect id="Rectangle-17-Copy-4" fill="#877937" x="57.5639098" y="41.6793893" width="41.6842105" height="15.8778626" rx="7.9389313"></rect>
                <rect id="Rectangle-17-Copy-3" fill="#877937" x="78.406015" y="59.5419847" width="41.6842105" height="15.8778626" rx="7.9389313"></rect>
                <rect id="Rectangle-17-Copy-2" fill="#877937" x="57.5639098" y="77.4045802" width="41.6842105" height="15.8778626" rx="7.9389313"></rect>
            </g>
            <g id="Group-17-Copy-2" transform="translate(525.000000, 1.000000)" stroke="#09930B">
                <rect id="Rectangle-16" stroke-width="5" fill="#FFFFFF" x="2.5" y="2.5" width="127" height="125" rx="8"></rect>
                <g id="Group-20" transform="translate(33.744361, 45.648855)" stroke-linecap="square" stroke-width="9">
                    <path d="M0.38768797,23.2179521 L24.4243421,45.2553304" id="Line-5"></path>
                    <path d="M24.2094522,45.2620003 L67.0988185,0.386854703" id="Line-6"></path>
                </g>
            </g>
            <g id="Group-17-Copy-3" transform="translate(354.000000, 0.000000)" stroke="#FA7504">
                <rect id="Rectangle-16" stroke-width="5" fill="#FFFFFF" x="2.5" y="2.5" width="127" height="125" rx="8"></rect>
                <g id="Group-18" transform="translate(25.000000, 35.000000)" fill="#FFFFFF" stroke-width="4">
                    <ellipse id="Oval-2" cx="25.1044661" cy="25.1148649" rx="25.1044661" ry="25.1148649"></ellipse>
                </g>
                <path d="M70,75 L101.81215,96.8473009" id="Path-2" stroke-width="11"></path>
                <path d="M34.0030665,64.310038 C33.8521093,52.6835451 39.2745937,45.5801991 50.2705198,43" id="Path-3" stroke-width="5"></path>
            </g>
            <g id="Group-17-Copy-4" transform="translate(886.000000, 2.000000)">
                <rect id="Rectangle-16" stroke="#1A03F9" stroke-width="5" fill="#FFFFFF" x="2.5" y="2.5" width="127" height="125" rx="8"></rect>
                <g id="Group-19" transform="translate(50.616541, 15.877863)">
                    <ellipse id="Oval-3" fill="#1A03F9" cx="18.3609023" cy="37.7099237" rx="14.3909774" ry="37.7099237"></ellipse>
                    <path d="M8.43609023,86.7938931 L8.43609023,97.7862595" id="Line-4" stroke="#1A03F9" stroke-width="5" stroke-linecap="square"></path>
                    <path d="M17.3684211,86.7938931 L17.3684211,97.7862595" id="Line-4" stroke="#1A03F9" stroke-width="5" stroke-linecap="square"></path>
                    <path d="M26.3007519,86.7938931 L26.3007519,97.7862595" id="Line-4" stroke="#1A03F9" stroke-width="5" stroke-linecap="square"></path>
                    <polygon id="Rectangle-18" fill="#1A03F9" points="6.94736842 59.5419847 13.8947368 59.5419847 13.8947368 81.3740458 0 81.3740458"></polygon>
                    <polygon id="Rectangle-18-Copy" fill="#1A03F9" transform="translate(28.781955, 70.458015) scale(-1, 1) translate(-28.781955, -70.458015) " points="28.7819549 59.5419847 35.7293233 59.5419847 35.7293233 81.3740458 21.8345865 81.3740458"></polygon>
                    <ellipse id="Oval-4" fill="#FFFFFF" cx="18.3609023" cy="21.3358779" rx="6.45112782" ry="6.45038168"></ellipse>
                    <ellipse id="Oval-4-Copy" fill="#FFFFFF" cx="18.3609023" cy="40.1908397" rx="4.46616541" ry="4.46564885"></ellipse>
                </g>
            </g>
        </g>
    </g>
</svg>